<mxfile host="65bd71144e">
    <diagram id="RbM_i0EJbGHSK3NYgyE7" name="ページ1">
        <mxGraphModel dx="6961" dy="2693" grid="1" gridSize="10" guides="1" tooltips="1" connect="1" arrows="1" fold="1" page="1" pageScale="1" pageWidth="827" pageHeight="1169" math="0" shadow="0">
            <root>
                <mxCell id="0"/>
                <mxCell id="1" parent="0"/>
                <mxCell id="659" value="" style="rounded=1;whiteSpace=wrap;html=1;arcSize=7;fontColor=default;strokeWidth=16;" parent="1" vertex="1">
                    <mxGeometry x="164" y="211" width="560" height="1070" as="geometry"/>
                </mxCell>
                <mxCell id="2" value="80" style="rounded=1;whiteSpace=wrap;html=1;arcSize=3;fontColor=default;" parent="1" vertex="1">
                    <mxGeometry x="-2380" y="150" width="1520" height="1080" as="geometry"/>
                </mxCell>
                <mxCell id="3" value="" style="line;strokeWidth=1;html=1;strokeColor=#000000;rounded=1;" parent="1" vertex="1">
                    <mxGeometry x="-2380" y="189" width="1520" height="10" as="geometry"/>
                </mxCell>
                <mxCell id="4" value="" style="verticalLabelPosition=bottom;labelBackgroundColor=default;verticalAlign=top;shadow=0;dashed=0;strokeWidth=2;shape=mxgraph.ios7.misc.add;fillColor=#00DD00;strokeColor=none;sketch=0;fontColor=default;html=1;rounded=1;" parent="1" vertex="1">
                    <mxGeometry x="-2309" y="166" width="12" height="12" as="geometry"/>
                </mxCell>
                <mxCell id="5" value="" style="html=1;verticalLabelPosition=bottom;labelBackgroundColor=#ffffff;verticalAlign=top;shadow=0;dashed=0;strokeWidth=2;shape=mxgraph.ios7.misc.delete;fillColor=#ff0000;strokeColor=none;sketch=0;rounded=1;" parent="1" vertex="1">
                    <mxGeometry x="-2352" y="166" width="11" height="12" as="geometry"/>
                </mxCell>
                <mxCell id="6" value="" style="html=1;verticalLabelPosition=bottom;labelBackgroundColor=#ffffff;verticalAlign=top;shadow=0;dashed=0;strokeWidth=2;shape=mxgraph.ios7.misc.delete;fillColor=#FFFF00;strokeColor=none;sketch=0;rounded=1;" parent="1" vertex="1">
                    <mxGeometry x="-2331" y="166" width="12" height="12" as="geometry"/>
                </mxCell>
                <mxCell id="7" value="&lt;font style=&quot;font-size: 16px&quot;&gt;draw.io&lt;/font&gt;" style="html=1;strokeWidth=1;shadow=0;dashed=0;shape=mxgraph.ios7ui.url;fillColor=#e0e0e0;strokeColor=#c0c0c0;buttonText=;strokeColor2=#222222;fontColor=#222222;fontSize=8;spacingTop=2;align=center;rounded=1;" parent="1" vertex="1">
                    <mxGeometry x="-1866.56" y="159" width="493.13" height="26" as="geometry"/>
                </mxCell>
                <mxCell id="8" value="" style="rounded=1;whiteSpace=wrap;html=1;arcSize=7;fontColor=default;strokeWidth=16;" parent="1" vertex="1">
                    <mxGeometry x="-663" y="212.12" width="560" height="1070" as="geometry"/>
                </mxCell>
                <mxCell id="9" value="" style="rounded=1;whiteSpace=wrap;html=1;shadow=0;fontSize=27;fontColor=#FFFFFF;strokeColor=#000000;strokeWidth=2;fillColor=#000000;gradientColor=none;arcSize=27;" parent="1" vertex="1">
                    <mxGeometry x="-543" y="207.12" width="320" height="54" as="geometry"/>
                </mxCell>
                <mxCell id="10" value="&lt;font style=&quot;font-size: 16px&quot;&gt;draw.io&lt;/font&gt;" style="html=1;strokeWidth=1;shadow=0;dashed=0;shape=mxgraph.ios7ui.url;fillColor=#e0e0e0;strokeColor=#c0c0c0;buttonText=;strokeColor2=#222222;fontColor=#222222;fontSize=8;spacingTop=2;align=center;rounded=1;" parent="1" vertex="1">
                    <mxGeometry x="-629.5600000000001" y="276.12" width="493.13" height="36" as="geometry"/>
                </mxCell>
                <mxCell id="70" value="&lt;font style=&quot;font-size: 56px;&quot;&gt;LOGO&lt;/font&gt;" style="html=1;shadow=0;dashed=0;shape=mxgraph.bootstrap.rrect;rSize=5;strokeColor=#FFFFFF;strokeWidth=3;fillColor=none;fontColor=#00FF00;whiteSpace=wrap;align=center;verticalAlign=middle;spacingLeft=0;fontStyle=0;fontSize=56;spacing=5;rounded=1;" parent="1" vertex="1">
                    <mxGeometry x="-2309" y="245" width="240" height="82.5" as="geometry"/>
                </mxCell>
                <mxCell id="105" value="" style="html=1;verticalLabelPosition=bottom;align=center;labelBackgroundColor=#ffffff;verticalAlign=top;strokeWidth=2;strokeColor=#0080F0;shadow=0;dashed=0;shape=mxgraph.ios7.icons.user;fontColor=#00FF00;fillColor=#E6E6E6;" parent="1" vertex="1">
                    <mxGeometry x="-1040.01" y="248.75" width="80" height="78.75" as="geometry"/>
                </mxCell>
                <mxCell id="137" value="" style="html=1;shadow=0;dashed=0;shape=mxgraph.bootstrap.rrect;rSize=5;fillColor=#ffffff;strokeColor=#999999;" parent="1" vertex="1">
                    <mxGeometry x="-582.8100000000001" y="543.37" width="399.25" height="560" as="geometry"/>
                </mxCell>
                <mxCell id="143" value="" style="html=1;verticalLabelPosition=bottom;align=center;labelBackgroundColor=#ffffff;verticalAlign=top;strokeWidth=2;strokeColor=#0080F0;shadow=0;dashed=0;shape=mxgraph.ios7.icons.user;fontColor=#00FF00;fillColor=#E6E6E6;" parent="1" vertex="1">
                    <mxGeometry x="-193" y="340.87" width="40" height="40" as="geometry"/>
                </mxCell>
                <mxCell id="144" value="&lt;font style=&quot;font-size: 40px&quot;&gt;LOGO&lt;/font&gt;" style="html=1;shadow=0;dashed=0;shape=mxgraph.bootstrap.rrect;rSize=5;strokeColor=#FFFFFF;strokeWidth=3;fillColor=none;fontColor=#00FF00;whiteSpace=wrap;align=center;verticalAlign=middle;spacingLeft=0;fontStyle=0;fontSize=16;spacing=5;rounded=1;" parent="1" vertex="1">
                    <mxGeometry x="-631.5" y="318.37" width="168.5" height="85" as="geometry"/>
                </mxCell>
                <mxCell id="145" value="" style="html=1;shadow=0;dashed=0;shape=mxgraph.bootstrap.rrect;rSize=5;fillColor=#ffffff;strokeColor=#999999;" parent="1" vertex="1">
                    <mxGeometry x="-1320" y="366.5" width="390" height="657" as="geometry"/>
                </mxCell>
                <mxCell id="170" value="&lt;span style=&quot;color: rgb(0, 0, 0); font-weight: 700; font-size: 16px;&quot;&gt;2022.03.15 - 2022.04.14&lt;/span&gt;" style="html=1;shadow=0;dashed=0;shape=mxgraph.bootstrap.rrect;rSize=5;strokeColor=#808080;html=1;whiteSpace=wrap;fillColor=#ffffff;fontColor=#0085FC;labelBackgroundColor=none;fontSize=16;" parent="1" vertex="1">
                    <mxGeometry x="-543" y="493.37" width="320" height="30" as="geometry"/>
                </mxCell>
                <mxCell id="171" value="&amp;lt;&amp;lt;" style="strokeColor=inherit;fillColor=inherit;gradientColor=inherit;fontColor=inherit;html=1;shadow=0;dashed=0;shape=mxgraph.bootstrap.leftButton;rSize=5;perimeter=none;whiteSpace=wrap;resizeHeight=1;fontSize=16;labelBackgroundColor=none;" parent="170" vertex="1">
                    <mxGeometry width="30" height="30" relative="1" as="geometry"/>
                </mxCell>
                <mxCell id="175" value="&amp;gt;&amp;gt;" style="strokeColor=inherit;fillColor=inherit;gradientColor=inherit;fontColor=inherit;html=1;shadow=0;dashed=0;shape=mxgraph.bootstrap.rightButton;rSize=5;perimeter=none;whiteSpace=wrap;resizeHeight=1;fontSize=16;labelBackgroundColor=none;" parent="170" vertex="1">
                    <mxGeometry x="1" width="30" height="30" relative="1" as="geometry">
                        <mxPoint x="-30" as="offset"/>
                    </mxGeometry>
                </mxCell>
                <mxCell id="176" value="" style="verticalLabelPosition=bottom;verticalAlign=top;html=1;shape=mxgraph.basic.donut;dx=10;strokeColor=none;fillColor=#10739E;fontSize=10;align=center;fillOpacity=20;shadow=0;labelBackgroundColor=none;fontColor=#000000;" parent="1" vertex="1">
                    <mxGeometry x="-502.6200000000001" y="561.02" width="240" height="240" as="geometry"/>
                </mxCell>
                <mxCell id="177" value="今日使える金額&lt;br&gt;&lt;br&gt;５００円" style="verticalLabelPosition=middle;verticalAlign=middle;html=1;shape=mxgraph.basic.partConcEllipse;startAngle=0;endAngle=0.65;arcWidth=0.2;strokeColor=none;fillColor=#10739E;fontSize=22;fontColor=#10739E;align=center;fontStyle=1;shadow=0;labelBackgroundColor=none;" parent="176" vertex="1">
                    <mxGeometry width="240" height="239.99999999999994" as="geometry"/>
                </mxCell>
                <mxCell id="179" value="" style="whiteSpace=wrap;html=1;fixedSize=1;size=10;fillColor=#B1DDF0;strokeColor=none;shadow=0;labelBackgroundColor=none;fontSize=16;fontColor=#000000;" parent="1" vertex="1">
                    <mxGeometry x="-522.6200000000001" y="833.3699999999999" width="280" height="40" as="geometry"/>
                </mxCell>
                <mxCell id="180" value="" style="whiteSpace=wrap;html=1;fixedSize=1;size=10;fillColor=#10739E;strokeColor=none;shadow=0;labelBackgroundColor=none;fontSize=16;fontColor=#000000;" parent="1" vertex="1">
                    <mxGeometry x="-522.6200000000001" y="833.3699999999999" width="81.88" height="40" as="geometry"/>
                </mxCell>
                <mxCell id="182" value="" style="whiteSpace=wrap;html=1;fixedSize=1;size=10;fillColor=#FCE7CD;strokeColor=none;shadow=0;labelBackgroundColor=none;fontSize=16;fontColor=#000000;" parent="1" vertex="1">
                    <mxGeometry x="-474.12000000000006" y="903.3699999999999" width="231.12" height="40" as="geometry"/>
                </mxCell>
                <mxCell id="183" value="" style="whiteSpace=wrap;html=1;fixedSize=1;size=10;fillColor=#F2931E;strokeColor=none;shadow=0;labelBackgroundColor=none;fontSize=16;fontColor=#000000;" parent="1" vertex="1">
                    <mxGeometry x="-523" y="903.3699999999999" width="201.88" height="40" as="geometry"/>
                </mxCell>
                <mxCell id="185" value="" style="whiteSpace=wrap;html=1;fixedSize=1;size=10;fillColor=#FAD9D5;strokeColor=none;shadow=0;labelBackgroundColor=none;fontSize=16;fontColor=#000000;" parent="1" vertex="1">
                    <mxGeometry x="-474.31000000000006" y="975.6199999999999" width="231.12" height="40" as="geometry"/>
                </mxCell>
                <mxCell id="186" value="" style="whiteSpace=wrap;html=1;fixedSize=1;size=10;fillColor=#AE4132;strokeColor=none;shadow=0;labelBackgroundColor=none;fontSize=16;fontColor=#000000;" parent="1" vertex="1">
                    <mxGeometry x="-523.19" y="975.6199999999999" width="151.88" height="40" as="geometry"/>
                </mxCell>
                <mxCell id="190" value="" style="html=1;shadow=0;dashed=0;shape=mxgraph.bootstrap.rrect;rSize=5;fillColor=#E6E6E6;strokeColor=#999999;labelBackgroundColor=none;fontSize=16;fontColor=#000000;" parent="1" vertex="1">
                    <mxGeometry x="-1300" y="388.75" width="350" height="320" as="geometry"/>
                </mxCell>
                <mxCell id="191" value="かんたん入力" style="fillColor=none;strokeColor=none;align=center;spacing=20;fontSize=24;shadow=0;labelBackgroundColor=none;fontColor=#000000;" parent="190" vertex="1">
                    <mxGeometry width="220" height="40" relative="1" as="geometry">
                        <mxPoint x="65" y="10" as="offset"/>
                    </mxGeometry>
                </mxCell>
                <mxCell id="678" value="最近のお買いもの" style="fillColor=none;strokeColor=none;align=center;spacing=20;fontSize=24;shadow=0;labelBackgroundColor=none;fontColor=#000000;" parent="190" vertex="1">
                    <mxGeometry width="220" height="40" relative="1" as="geometry">
                        <mxPoint x="1636" y="509" as="offset"/>
                    </mxGeometry>
                </mxCell>
                <mxCell id="194" value="今日の日付" style="html=1;shadow=0;dashed=0;shape=mxgraph.bootstrap.rrect;rSize=5;fillColor=default;strokeColor=#808080;align=left;spacing=15;fontSize=16;fontColor=#6C767D;labelBackgroundColor=none;" parent="190" vertex="1">
                    <mxGeometry width="260" height="40" relative="1" as="geometry">
                        <mxPoint x="17" y="64" as="offset"/>
                    </mxGeometry>
                </mxCell>
                <mxCell id="196" value="ADD" style="html=1;shadow=0;dashed=0;shape=mxgraph.bootstrap.rrect;rSize=5;fillColor=#00CC00;strokeColor=none;align=center;fontSize=16;fontColor=#FFFFFF;labelBackgroundColor=none;" parent="190" vertex="1">
                    <mxGeometry width="160" height="40" relative="1" as="geometry">
                        <mxPoint x="92" y="255" as="offset"/>
                    </mxGeometry>
                </mxCell>
                <mxCell id="201" value="カテゴリー選択" style="html=1;shadow=0;dashed=0;shape=mxgraph.bootstrap.rrect;rSize=5;strokeColor=#808080;strokeWidth=1;fillColor=#ffffff;fontColor=#777777;whiteSpace=wrap;align=left;verticalAlign=middle;fontStyle=0;fontSize=16;spacing=20;labelBackgroundColor=none;" parent="190" vertex="1">
                    <mxGeometry x="17" y="117.65" width="310" height="40" as="geometry"/>
                </mxCell>
                <mxCell id="202" value="" style="shape=triangle;direction=south;fillColor=#495057;strokeColor=none;perimeter=none;shadow=0;labelBackgroundColor=none;fontSize=16;fontColor=#000000;" parent="201" vertex="1">
                    <mxGeometry x="1" y="0.5" width="10" height="5" relative="1" as="geometry">
                        <mxPoint x="-17" y="-2.5" as="offset"/>
                    </mxGeometry>
                </mxCell>
                <mxCell id="203" value="🗓" style="html=1;shadow=1;dashed=0;shape=mxgraph.bootstrap.rrect;rSize=5;strokeColor=#808080;strokeWidth=1;fillColor=#E6E6E6;fontColor=#343A40;whiteSpace=wrap;align=center;verticalAlign=middle;spacingLeft=0;fontStyle=0;fontSize=24;spacing=5;labelBackgroundColor=none;" parent="190" vertex="1">
                    <mxGeometry x="290" y="59.996811594202896" width="40" height="37.10144927536232" as="geometry"/>
                </mxCell>
                <mxCell id="205" value="最近のお買いもの" style="fillColor=none;strokeColor=none;align=center;spacing=20;fontSize=24;shadow=0;labelBackgroundColor=none;fontColor=#000000;" parent="190" vertex="1">
                    <mxGeometry width="220" height="40" relative="1" as="geometry">
                        <mxPoint x="65" y="380" as="offset"/>
                    </mxGeometry>
                </mxCell>
                <mxCell id="257" value="金額" style="html=1;shadow=0;dashed=0;shape=mxgraph.bootstrap.rrect;rSize=5;fillColor=default;strokeColor=#808080;align=left;spacing=15;fontSize=16;fontColor=#6C767D;labelBackgroundColor=none;" parent="190" vertex="1">
                    <mxGeometry width="310" height="40" relative="1" as="geometry">
                        <mxPoint x="17" y="174" as="offset"/>
                    </mxGeometry>
                </mxCell>
                <mxCell id="229" value="&lt;span style=&quot;color: rgb(0, 0, 0); font-weight: 700; font-size: 32px;&quot;&gt;2022.03.15 - 2022.04.14&lt;/span&gt;" style="html=1;shadow=0;dashed=0;shape=mxgraph.bootstrap.rrect;rSize=5;strokeColor=#808080;html=1;whiteSpace=wrap;fillColor=#ffffff;fontColor=#0085FC;labelBackgroundColor=none;fontSize=32;" parent="1" vertex="1">
                    <mxGeometry x="-2081.45" y="366.5" width="557.1" height="64.75" as="geometry"/>
                </mxCell>
                <mxCell id="230" value="&amp;lt;&amp;lt;" style="strokeColor=inherit;fillColor=inherit;gradientColor=inherit;fontColor=inherit;html=1;shadow=0;dashed=0;shape=mxgraph.bootstrap.leftButton;rSize=5;perimeter=none;whiteSpace=wrap;resizeHeight=1;fontSize=16;labelBackgroundColor=none;" parent="229" vertex="1">
                    <mxGeometry width="80" height="64.75" relative="1" as="geometry"/>
                </mxCell>
                <mxCell id="231" value="&amp;gt;&amp;gt;" style="strokeColor=inherit;fillColor=inherit;gradientColor=inherit;fontColor=inherit;html=1;shadow=0;dashed=0;shape=mxgraph.bootstrap.rightButton;rSize=5;perimeter=none;whiteSpace=wrap;resizeHeight=1;fontSize=16;labelBackgroundColor=none;" parent="229" vertex="1">
                    <mxGeometry x="1" width="81" height="64.75" relative="1" as="geometry">
                        <mxPoint x="-81" as="offset"/>
                    </mxGeometry>
                </mxCell>
                <mxCell id="232" value="" style="html=1;shadow=0;dashed=0;shape=mxgraph.bootstrap.rrect;rSize=5;fillColor=#ffffff;strokeColor=#999999;" parent="1" vertex="1">
                    <mxGeometry x="-2265.8" y="463.5" width="925.8" height="560" as="geometry"/>
                </mxCell>
                <mxCell id="233" value="" style="verticalLabelPosition=bottom;verticalAlign=top;html=1;shape=mxgraph.basic.donut;dx=10;strokeColor=none;fillColor=#10739E;fontSize=10;align=center;fillOpacity=20;shadow=0;labelBackgroundColor=none;fontColor=#000000;" parent="1" vertex="1">
                    <mxGeometry x="-1733.42" y="563.5" width="360" height="360" as="geometry"/>
                </mxCell>
                <mxCell id="234" value="&lt;font style=&quot;font-size: 32px&quot;&gt;今日使える金額&lt;br&gt;&lt;br&gt;５００円&lt;/font&gt;" style="verticalLabelPosition=middle;verticalAlign=middle;html=1;shape=mxgraph.basic.partConcEllipse;startAngle=0;endAngle=0.65;arcWidth=0.2;strokeColor=none;fillColor=#10739E;fontSize=22;fontColor=#10739E;align=center;fontStyle=1;shadow=0;labelBackgroundColor=none;" parent="233" vertex="1">
                    <mxGeometry width="360" height="360" as="geometry"/>
                </mxCell>
                <mxCell id="236" value="" style="whiteSpace=wrap;html=1;fixedSize=1;size=10;fillColor=#B1DDF0;strokeColor=none;shadow=0;labelBackgroundColor=none;fontSize=16;fontColor=#000000;" parent="1" vertex="1">
                    <mxGeometry x="-2208.49" y="563.5" width="400" height="80" as="geometry"/>
                </mxCell>
                <mxCell id="237" value="" style="whiteSpace=wrap;html=1;fixedSize=1;size=10;fillColor=#FCE7CD;strokeColor=none;shadow=0;labelBackgroundColor=none;fontSize=16;fontColor=#000000;" parent="1" vertex="1">
                    <mxGeometry x="-2208.49" y="704.6199999999999" width="400" height="80" as="geometry"/>
                </mxCell>
                <mxCell id="238" value="" style="whiteSpace=wrap;html=1;fixedSize=1;size=10;fillColor=#F2931E;strokeColor=none;shadow=0;labelBackgroundColor=none;fontSize=16;fontColor=#000000;" parent="1" vertex="1">
                    <mxGeometry x="-2208.49" y="704.6199999999999" width="153" height="80" as="geometry"/>
                </mxCell>
                <mxCell id="239" value="" style="whiteSpace=wrap;html=1;fixedSize=1;size=10;fillColor=#FAD9D5;strokeColor=none;shadow=0;labelBackgroundColor=none;fontSize=16;fontColor=#000000;" parent="1" vertex="1">
                    <mxGeometry x="-2208.49" y="843.5" width="400" height="80" as="geometry"/>
                </mxCell>
                <mxCell id="240" value="" style="whiteSpace=wrap;html=1;fixedSize=1;size=10;fillColor=#AE4132;strokeColor=none;shadow=0;labelBackgroundColor=none;fontSize=16;fontColor=#000000;" parent="1" vertex="1">
                    <mxGeometry x="-2208.49" y="843.5" width="320" height="80" as="geometry"/>
                </mxCell>
                <mxCell id="235" value="" style="whiteSpace=wrap;html=1;fixedSize=1;size=10;fillColor=#10739E;strokeColor=none;shadow=0;labelBackgroundColor=none;fontSize=16;fontColor=#000000;" parent="1" vertex="1">
                    <mxGeometry x="-2208.49" y="563.5" width="228.49" height="80" as="geometry"/>
                </mxCell>
                <mxCell id="258" value="Footer" style="rounded=0;whiteSpace=wrap;html=1;shadow=0;fontSize=72;fontColor=#00CC00;strokeWidth=2;fillColor=#FFFFFF;strokeColor=none;" parent="1" vertex="1">
                    <mxGeometry x="-2380" y="1182.25" width="1519" height="173" as="geometry"/>
                </mxCell>
                <mxCell id="260" value="" style="endArrow=none;html=1;fontSize=16;fontColor=#000000;entryX=1;entryY=0.959;entryDx=0;entryDy=0;entryPerimeter=0;" parent="1" target="2" edge="1">
                    <mxGeometry width="50" height="50" relative="1" as="geometry">
                        <mxPoint x="-860" y="1356.25" as="sourcePoint"/>
                        <mxPoint x="-860" y="1203.25" as="targetPoint"/>
                    </mxGeometry>
                </mxCell>
                <mxCell id="261" value="" style="endArrow=none;html=1;fontSize=16;fontColor=#000000;entryX=0;entryY=0.951;entryDx=0;entryDy=0;entryPerimeter=0;" parent="1" target="2" edge="1">
                    <mxGeometry width="50" height="50" relative="1" as="geometry">
                        <mxPoint x="-2380" y="1355.25" as="sourcePoint"/>
                        <mxPoint x="-2380.0000000000005" y="1195.7199999999998" as="targetPoint"/>
                    </mxGeometry>
                </mxCell>
                <mxCell id="656" value="&lt;font style=&quot;font-size: 24px&quot;&gt;INFO&lt;/font&gt;" style="html=1;shadow=0;dashed=0;shape=mxgraph.bootstrap.rrect;rSize=5;strokeColor=none;strokeWidth=1;fillColor=#0085FC;fontColor=#FFFFFF;whiteSpace=wrap;align=center;verticalAlign=middle;spacingLeft=0;fontStyle=0;fontSize=16;spacing=5;labelBackgroundColor=none;" parent="1" vertex="1">
                    <mxGeometry x="-1205" y="830" width="160" height="40" as="geometry"/>
                </mxCell>
                <mxCell id="660" value="" style="rounded=1;whiteSpace=wrap;html=1;shadow=0;fontSize=27;fontColor=#FFFFFF;strokeColor=#000000;strokeWidth=2;fillColor=#000000;gradientColor=none;arcSize=27;" parent="1" vertex="1">
                    <mxGeometry x="284" y="206" width="320" height="54" as="geometry"/>
                </mxCell>
                <mxCell id="661" value="&lt;font style=&quot;font-size: 16px&quot;&gt;draw.io&lt;/font&gt;" style="html=1;strokeWidth=1;shadow=0;dashed=0;shape=mxgraph.ios7ui.url;fillColor=#e0e0e0;strokeColor=#c0c0c0;buttonText=;strokeColor2=#222222;fontColor=#222222;fontSize=8;spacingTop=2;align=center;rounded=1;" parent="1" vertex="1">
                    <mxGeometry x="195.5" y="275" width="493.13" height="36" as="geometry"/>
                </mxCell>
                <mxCell id="663" value="" style="html=1;shadow=0;dashed=0;shape=mxgraph.bootstrap.rrect;rSize=5;fillColor=#ffffff;strokeColor=none;" parent="1" vertex="1">
                    <mxGeometry x="244.38" y="486" width="400" height="400" as="geometry"/>
                </mxCell>
                <mxCell id="664" value="" style="html=1;shadow=0;dashed=0;shape=mxgraph.bootstrap.rrect;rSize=5;fillColor=#E6E6E6;strokeColor=#999999;labelBackgroundColor=none;fontSize=16;fontColor=#000000;" parent="1" vertex="1">
                    <mxGeometry x="269.38" y="510.75" width="350" height="320" as="geometry"/>
                </mxCell>
                <mxCell id="665" value="かんたん入力" style="fillColor=none;strokeColor=none;align=center;spacing=20;fontSize=24;shadow=0;labelBackgroundColor=none;fontColor=#000000;" parent="664" vertex="1">
                    <mxGeometry width="220" height="40" relative="1" as="geometry">
                        <mxPoint x="65" y="10" as="offset"/>
                    </mxGeometry>
                </mxCell>
                <mxCell id="666" value="今日の日付" style="html=1;shadow=0;dashed=0;shape=mxgraph.bootstrap.rrect;rSize=5;fillColor=default;strokeColor=#808080;align=left;spacing=15;fontSize=16;fontColor=#6C767D;labelBackgroundColor=none;" parent="664" vertex="1">
                    <mxGeometry width="260" height="40" relative="1" as="geometry">
                        <mxPoint x="20" y="64" as="offset"/>
                    </mxGeometry>
                </mxCell>
                <mxCell id="667" value="ADD" style="html=1;shadow=0;dashed=0;shape=mxgraph.bootstrap.rrect;rSize=5;fillColor=#00CC00;strokeColor=none;align=center;fontSize=16;fontColor=#FFFFFF;labelBackgroundColor=none;" parent="664" vertex="1">
                    <mxGeometry width="160" height="40" relative="1" as="geometry">
                        <mxPoint x="95" y="255" as="offset"/>
                    </mxGeometry>
                </mxCell>
                <mxCell id="668" value="カテゴリー選択" style="html=1;shadow=0;dashed=0;shape=mxgraph.bootstrap.rrect;rSize=5;strokeColor=#808080;strokeWidth=1;fillColor=#ffffff;fontColor=#777777;whiteSpace=wrap;align=left;verticalAlign=middle;fontStyle=0;fontSize=16;spacing=20;labelBackgroundColor=none;" parent="664" vertex="1">
                    <mxGeometry x="20" y="115.24758409785929" width="310" height="53.333333333333336" as="geometry"/>
                </mxCell>
                <mxCell id="669" value="" style="shape=triangle;direction=south;fillColor=#495057;strokeColor=none;perimeter=none;shadow=0;labelBackgroundColor=none;fontSize=16;fontColor=#000000;" parent="668" vertex="1">
                    <mxGeometry x="1" y="0.5" width="10" height="5" relative="1" as="geometry">
                        <mxPoint x="-17" y="-2.5" as="offset"/>
                    </mxGeometry>
                </mxCell>
                <mxCell id="670" value="🗓" style="html=1;shadow=1;dashed=0;shape=mxgraph.bootstrap.rrect;rSize=5;strokeColor=#808080;strokeWidth=1;fillColor=#E6E6E6;fontColor=#343A40;whiteSpace=wrap;align=center;verticalAlign=middle;spacingLeft=0;fontStyle=0;fontSize=16;spacing=5;labelBackgroundColor=none;" parent="664" vertex="1">
                    <mxGeometry x="290" y="65.24971679297963" width="40" height="37.10144927536232" as="geometry"/>
                </mxCell>
                <mxCell id="671" value="金額" style="html=1;shadow=0;dashed=0;shape=mxgraph.bootstrap.rrect;rSize=5;fillColor=default;strokeColor=#808080;align=left;spacing=15;fontSize=16;fontColor=#6C767D;labelBackgroundColor=none;" parent="664" vertex="1">
                    <mxGeometry width="310" height="40" relative="1" as="geometry">
                        <mxPoint x="20" y="185" as="offset"/>
                    </mxGeometry>
                </mxCell>
                <mxCell id="672" value="&lt;font style=&quot;font-size: 40px&quot;&gt;LOGO&lt;/font&gt;" style="html=1;shadow=0;dashed=0;shape=mxgraph.bootstrap.rrect;rSize=5;strokeColor=#FFFFFF;strokeWidth=3;fillColor=none;fontColor=#00FF00;whiteSpace=wrap;align=center;verticalAlign=middle;spacingLeft=0;fontStyle=0;fontSize=16;spacing=5;rounded=1;" parent="1" vertex="1">
                    <mxGeometry x="195.5" y="320.5" width="168.5" height="85" as="geometry"/>
                </mxCell>
                <mxCell id="673" value="" style="html=1;verticalLabelPosition=bottom;align=center;labelBackgroundColor=#ffffff;verticalAlign=top;strokeWidth=2;strokeColor=#0080F0;shadow=0;dashed=0;shape=mxgraph.ios7.icons.user;fontColor=#00FF00;fillColor=#E6E6E6;" parent="1" vertex="1">
                    <mxGeometry x="634" y="343" width="40" height="40" as="geometry"/>
                </mxCell>
                <mxCell id="674" value="" style="html=1;strokeWidth=1;shadow=0;dashed=0;shape=mxgraph.ios7ui.rrect;rSize=3;strokeColor=#0080F0;gradientColor=none;fontSize=56;fontColor=#00FF00;" parent="1" vertex="1">
                    <mxGeometry x="204" y="416" width="479.62" height="40" as="geometry"/>
                </mxCell>
                <mxCell id="675" value="Item 1" style="strokeColor=#0080F0;fillColor=none;gradientColor=none;html=1;strokeWidth=1;shadow=0;dashed=0;shape=mxgraph.ios7ui.leftButton;rSize=3;fontSize=8;fontColor=#00FF00;" parent="674" vertex="1">
                    <mxGeometry width="160" height="40" as="geometry"/>
                </mxCell>
                <mxCell id="676" value="Item 3" style="strokeColor=#0080F0;fillColor=none;html=1;strokeWidth=1;shadow=0;dashed=0;shape=mxgraph.ios7ui.rightButton;rSize=3;fontSize=8;fontColor=#00FF00;" parent="674" vertex="1">
                    <mxGeometry x="319.62" width="160" height="40" as="geometry"/>
                </mxCell>
                <mxCell id="701" value="Item 2" style="strokeColor=#0080F0;fillColor=#0080F0;gradientColor=none;html=1;strokeWidth=1;shadow=0;dashed=0;shape=mxgraph.ios7ui.leftButton;rSize=3;fontSize=8;fontColor=#00FF00;" parent="674" vertex="1">
                    <mxGeometry x="160" width="160" height="40" as="geometry"/>
                </mxCell>
                <mxCell id="677" value="&lt;font style=&quot;font-size: 24px&quot;&gt;INFO&lt;/font&gt;" style="html=1;shadow=0;dashed=0;shape=mxgraph.bootstrap.rrect;rSize=5;strokeColor=none;strokeWidth=1;fillColor=#0085FC;fontColor=#FFFFFF;whiteSpace=wrap;align=center;verticalAlign=middle;spacingLeft=0;fontStyle=0;fontSize=16;spacing=5;labelBackgroundColor=none;" parent="1" vertex="1">
                    <mxGeometry x="364.38" y="963.5" width="160" height="40" as="geometry"/>
                </mxCell>
                <mxCell id="702" value="" style="html=1;strokeWidth=1;shadow=0;dashed=0;shape=mxgraph.ios7ui.rrect;rSize=3;strokeColor=#0080F0;gradientColor=none;fontSize=56;fontColor=#00FF00;" parent="1" vertex="1">
                    <mxGeometry x="-622.99" y="419.62" width="479.62" height="40" as="geometry"/>
                </mxCell>
                <mxCell id="703" value="Item 1" style="strokeColor=#0080F0;fillColor=#0080F0;gradientColor=none;html=1;strokeWidth=1;shadow=0;dashed=0;shape=mxgraph.ios7ui.leftButton;rSize=3;fontSize=8;fontColor=#00FF00;" parent="702" vertex="1">
                    <mxGeometry width="160" height="40" as="geometry"/>
                </mxCell>
                <mxCell id="704" value="Item 3" style="strokeColor=#0080F0;fillColor=none;html=1;strokeWidth=1;shadow=0;dashed=0;shape=mxgraph.ios7ui.rightButton;rSize=3;fontSize=8;fontColor=#00FF00;" parent="702" vertex="1">
                    <mxGeometry x="319.62" width="160" height="40" as="geometry"/>
                </mxCell>
                <mxCell id="705" value="Item 2" style="strokeColor=#0080F0;fillColor=none;gradientColor=none;html=1;strokeWidth=1;shadow=0;dashed=0;shape=mxgraph.ios7ui.leftButton;rSize=3;fontSize=8;fontColor=#00FF00;" parent="702" vertex="1">
                    <mxGeometry x="160" width="160" height="40" as="geometry"/>
                </mxCell>
            </root>
        </mxGraphModel>
    </diagram>
</mxfile>